# xmcd
#
# Track frame offsets:
#	150
#	17436
#	34160
#	50649
#	65811
#	83119
#
# Disc length: 1413 seconds
#
# Revision: 1
# Processed by: cddbd v1.5.2PL0 Copyright (c) Steve Scherf et al.
# Submitted via: audiograbber 1.83.01
#
DISCID=49058306
DTITLE=Boneyard Moan - Boneyard Moan
DYEAR=2013
DGENRE=Blues Rock
TTITLE0=Boneyard Boogieman
TTITLE1=Long Gone
TTITLE2=Night Train
TTITLE3=Dark Water's Hedge
TTITLE4=Cold Cold Woman
TTITLE5=Bad Old friend The Blues
EXTD=From Nancy (France)
EXTT0=
EXTT1=
EXTT2=
EXTT3=
EXTT4=
EXTT5=
PLAYORDER=
